<svg xmlns="http://www.w3.org/2000/svg" xmlns:xlink="http://www.w3.org/1999/xlink" width="500" zoomAndPan="magnify" viewBox="0 0 375 374.999991" height="500" preserveAspectRatio="xMidYMid meet" version="1.0"><defs><clipPath id="1c579dcf21"><path d="M 65.210938 63 L 305.210938 63 L 305.210938 325 L 65.210938 325 Z M 65.210938 63 " clip-rule="nonzero"/></clipPath><clipPath id="2f93f3aa7b"><path d="M 74.589844 107.882812 L 301.839844 107.882812 L 301.839844 320 L 74.589844 320 Z M 74.589844 107.882812 " clip-rule="nonzero"/></clipPath></defs><g clip-path="url(#1c579dcf21)"><path fill="#d40505" d="M 297.457031 63.617188 L 237.53125 63.617188 C 240.195312 70.054688 242.011719 77.019531 242.695312 84.378906 C 245.476562 86.058594 247.347656 89.105469 247.347656 92.59375 C 247.347656 96.613281 244.867188 100.046875 241.371094 101.480469 C 240.25 101.9375 239.023438 102.199219 237.734375 102.199219 C 236.160156 102.199219 234.683594 101.808594 233.367188 101.136719 C 230.265625 99.546875 228.140625 96.320312 228.140625 92.597656 C 228.140625 89.640625 229.492188 87.015625 231.597656 85.253906 C 230.847656 77.414062 228.644531 70.097656 225.339844 63.617188 L 144.933594 63.617188 C 141.628906 70.101562 139.425781 77.421875 138.683594 85.265625 C 140.78125 87.023438 142.128906 89.640625 142.128906 92.597656 C 142.128906 96.320312 140 99.550781 136.898438 101.136719 C 135.582031 101.808594 134.101562 102.199219 132.527344 102.199219 C 131.242188 102.199219 130.019531 101.9375 128.898438 101.480469 C 125.394531 100.046875 122.921875 96.613281 122.921875 92.59375 C 122.921875 89.097656 124.796875 86.042969 127.59375 84.363281 C 128.273438 77.011719 130.089844 70.042969 132.75 63.613281 L 72.78125 63.613281 L 65.09375 309.289062 C 65.09375 317.785156 71.980469 324.671875 80.476562 324.671875 L 289.765625 324.671875 C 298.269531 324.671875 305.152344 317.785156 305.152344 309.289062 Z M 297.457031 63.617188 " fill-opacity="1" fill-rule="nonzero"/></g><path fill="#d40505" d="M 132.824219 95.125 C 134.996094 95.125 136.789062 93.417969 136.910156 91.238281 L 136.925781 90.847656 C 137.109375 60.273438 158.738281 35.398438 185.144531 35.398438 C 211.570312 35.398438 233.199219 60.300781 233.355469 90.902344 L 233.375 91.238281 C 233.492188 93.417969 235.28125 95.125 237.457031 95.125 C 239.621094 95.125 241.410156 93.421875 241.539062 91.234375 L 241.558594 90.882812 C 241.253906 55.765625 215.949219 27.191406 185.144531 27.191406 C 154.164062 27.191406 128.859375 55.796875 128.746094 91.238281 C 128.863281 93.414062 130.652344 95.125 132.824219 95.125 Z M 132.824219 95.125 " fill-opacity="1" fill-rule="nonzero"/><g clip-path="url(#2f93f3aa7b)"><path fill="#ffffff" d="M 257.289062 112.117188 C 258.285156 109.667969 260.675781 107.917969 263.507812 107.917969 C 271.992188 107.917969 286.546875 107.917969 295.023438 107.917969 C 298.695312 107.917969 301.667969 110.835938 301.667969 114.421875 C 301.667969 118.007812 298.695312 120.925781 295.023438 120.925781 L 268 120.925781 L 200.5 288.382812 L 200.480469 288.421875 C 199.484375 290.828125 197.105469 292.519531 194.300781 292.519531 L 177.324219 292.519531 C 184.566406 292.945312 190.289062 298.894531 190.289062 306.113281 C 190.289062 313.625 184.054688 319.730469 176.371094 319.730469 C 168.683594 319.730469 162.449219 313.625 162.449219 306.113281 C 162.449219 298.910156 168.171875 293.003906 175.414062 292.519531 L 101.621094 292.519531 C 108.863281 292.945312 114.585938 298.894531 114.585938 306.113281 C 114.585938 313.625 108.351562 319.730469 100.667969 319.730469 C 92.980469 319.730469 86.746094 313.625 86.746094 306.113281 C 86.746094 298.910156 92.484375 293.003906 99.710938 292.519531 L 87.472656 292.519531 C 83.800781 292.519531 80.828125 289.601562 80.828125 286.015625 C 80.828125 282.429688 83.800781 279.511719 87.472656 279.511719 L 189.800781 279.511719 L 200.046875 254.609375 L 90.519531 245.644531 C 87.214844 245.636719 84.34375 243.210938 83.945312 239.90625 C 81.992188 223.859375 76.957031 182.300781 75.019531 166.25 C 74.59375 162.691406 77.199219 159.449219 80.828125 159.035156 C 81.394531 158.976562 81.824219 158.976562 82.347656 159.03125 L 241.011719 154.902344 Z M 100.683594 299.175781 C 104.597656 299.175781 107.757812 302.277344 107.757812 306.105469 C 107.757812 309.917969 104.585938 313.023438 100.683594 313.023438 C 96.769531 313.023438 93.609375 309.917969 93.609375 306.105469 C 93.609375 302.292969 96.785156 299.175781 100.683594 299.175781 Z M 176.386719 299.175781 C 180.289062 299.175781 183.460938 302.277344 183.460938 306.105469 C 183.460938 309.917969 180.289062 313.023438 176.386719 313.023438 C 172.488281 313.023438 169.3125 309.917969 169.3125 306.105469 C 169.3125 302.292969 172.488281 299.175781 176.386719 299.175781 Z M 190.035156 240.742188 L 205.242188 242.023438 L 212.882812 223.464844 L 212.882812 218.769531 L 190.101562 218.769531 L 190.101562 240.78125 Z M 163.203125 218.730469 L 163.203125 238.546875 L 185.203125 240.339844 L 185.203125 218.722656 Z M 136.316406 218.730469 L 136.316406 236.347656 L 158.316406 238.15625 L 158.316406 218.738281 Z M 108.644531 218.730469 L 108.644531 234.085938 L 131.417969 235.949219 L 131.417969 218.730469 Z M 94.765625 218.730469 L 96.519531 233.089844 L 103.761719 233.660156 L 103.761719 218.707031 Z M 91.792969 194.207031 L 94.183594 213.941406 L 103.746094 213.941406 L 103.746094 194.207031 Z M 108.640625 213.941406 L 131.414062 213.941406 L 131.414062 194.207031 L 108.640625 194.207031 Z M 136.3125 213.941406 L 158.308594 213.941406 L 158.308594 194.207031 L 136.3125 194.207031 Z M 163.199219 213.941406 L 185.199219 213.941406 L 185.199219 194.207031 L 163.199219 194.207031 Z M 190.089844 213.941406 L 212.867188 213.941406 L 212.867188 194.207031 L 190.089844 194.207031 Z M 217.761719 194.207031 L 217.761719 211.523438 L 224.878906 194.207031 Z M 89.085938 171.859375 L 91.21875 189.417969 L 103.757812 189.417969 L 103.757812 171.480469 Z M 108.640625 171.292969 L 108.640625 189.359375 L 131.414062 189.359375 L 131.414062 170.699219 Z M 136.3125 170.582031 L 136.3125 189.367188 L 158.3125 189.367188 L 158.3125 170.007812 Z M 163.203125 169.867188 L 163.203125 189.351562 L 185.203125 189.351562 L 185.203125 169.296875 Z M 190.089844 169.15625 L 190.089844 189.339844 L 212.875 189.339844 L 212.875 168.566406 Z M 217.761719 168.445312 L 217.761719 189.347656 L 226.84375 189.347656 L 235.625 167.980469 Z M 217.761719 168.445312 " fill-opacity="1" fill-rule="evenodd"/></g></svg>