<svg xmlns="http://www.w3.org/2000/svg" xmlns:xlink="http://www.w3.org/1999/xlink" width="500" zoomAndPan="magnify" viewBox="0 0 375 374.999991" height="500" preserveAspectRatio="xMidYMid meet" version="1.0"><defs><g/><clipPath id="b0d642da50"><path d="M 169 106 L 231 106 L 231 262 L 169 262 Z M 169 106 " clip-rule="nonzero"/></clipPath><clipPath id="b6137ac992"><path d="M 169.980469 111.84375 L 212.730469 106.773438 L 230.46875 256.335938 L 187.71875 261.402344 Z M 169.980469 111.84375 " clip-rule="nonzero"/></clipPath></defs><g fill="#fffbfb" fill-opacity="1"><g transform="translate(84.337631, 241.375307)"><g><path d="M 129.921875 -120.5 L 129.921875 0 L 102.046875 0 L 102.046875 -72.265625 L 81.484375 -23.0625 L 57.265625 -23.0625 L 37.09375 -72.265625 L 37.09375 0 L 9.21875 0 L 9.21875 -120.5 L 45.546875 -120.5 L 69.953125 -59.765625 L 94.9375 -120.5 Z M 129.921875 -120.5 "/></g></g></g><g fill="#fffbfb" fill-opacity="1"><g transform="translate(180.308515, 218.746594)"><g><path d="M 97.828125 -120.5 L 97.828125 -93.59375 L 64.953125 -93.59375 L 64.953125 0 L 35.171875 0 L 35.171875 -93.59375 L 2.3125 -93.59375 L 2.3125 -120.5 Z M 97.828125 -120.5 "/></g></g></g><g clip-path="url(#b0d642da50)"><g clip-path="url(#b6137ac992)"><path fill="#000000" d="M 169.980469 111.84375 L 212.730469 106.773438 L 230.476562 256.398438 L 187.726562 261.46875 Z M 169.980469 111.84375 " fill-opacity="1" fill-rule="nonzero"/></g></g><g fill="#fffbfb" fill-opacity="1"><g transform="translate(49.099799, 278.374758)"><g><path d="M 12.8125 0 L 12.796875 -7.46875 L 9.125 -1.3125 L 7.828125 -1.3125 L 4.1875 -7.3125 L 4.1875 0 L 1.484375 0 L 1.484375 -12.453125 L 3.859375 -12.453125 L 8.53125 -4.71875 L 13.109375 -12.453125 L 15.484375 -12.453125 L 15.515625 0 Z M 12.8125 0 "/></g></g></g><g fill="#fffbfb" fill-opacity="1"><g transform="translate(75.788012, 278.374758)"><g><path d="M 7.015625 0.21875 C 5.234375 0.21875 3.847656 -0.269531 2.859375 -1.25 C 1.867188 -2.238281 1.375 -3.648438 1.375 -5.484375 L 1.375 -12.453125 L 4.25 -12.453125 L 4.25 -5.59375 C 4.25 -3.363281 5.175781 -2.25 7.03125 -2.25 C 7.925781 -2.25 8.613281 -2.515625 9.09375 -3.046875 C 9.570312 -3.585938 9.8125 -4.4375 9.8125 -5.59375 L 9.8125 -12.453125 L 12.65625 -12.453125 L 12.65625 -5.484375 C 12.65625 -3.648438 12.160156 -2.238281 11.171875 -1.25 C 10.179688 -0.269531 8.796875 0.21875 7.015625 0.21875 Z M 7.015625 0.21875 "/></g></g></g><g fill="#fffbfb" fill-opacity="1"><g transform="translate(99.505441, 278.374758)"><g><path d="M 5.578125 0.21875 C 4.585938 0.21875 3.628906 0.0820312 2.703125 -0.1875 C 1.785156 -0.457031 1.050781 -0.804688 0.5 -1.234375 L 1.484375 -3.40625 C 2.015625 -3.007812 2.644531 -2.691406 3.375 -2.453125 C 4.113281 -2.210938 4.851562 -2.09375 5.59375 -2.09375 C 6.40625 -2.09375 7.003906 -2.210938 7.390625 -2.453125 C 7.785156 -2.703125 7.984375 -3.03125 7.984375 -3.4375 C 7.984375 -3.726562 7.867188 -3.972656 7.640625 -4.171875 C 7.410156 -4.367188 7.113281 -4.523438 6.75 -4.640625 C 6.394531 -4.765625 5.90625 -4.894531 5.28125 -5.03125 C 4.332031 -5.257812 3.554688 -5.484375 2.953125 -5.703125 C 2.347656 -5.929688 1.828125 -6.296875 1.390625 -6.796875 C 0.960938 -7.296875 0.75 -7.960938 0.75 -8.796875 C 0.75 -9.515625 0.941406 -10.164062 1.328125 -10.75 C 1.722656 -11.34375 2.316406 -11.8125 3.109375 -12.15625 C 3.898438 -12.5 4.863281 -12.671875 6 -12.671875 C 6.789062 -12.671875 7.566406 -12.578125 8.328125 -12.390625 C 9.085938 -12.203125 9.753906 -11.925781 10.328125 -11.5625 L 9.4375 -9.375 C 8.28125 -10.03125 7.128906 -10.359375 5.984375 -10.359375 C 5.171875 -10.359375 4.570312 -10.226562 4.1875 -9.96875 C 3.800781 -9.707031 3.609375 -9.363281 3.609375 -8.9375 C 3.609375 -8.507812 3.832031 -8.191406 4.28125 -7.984375 C 4.726562 -7.773438 5.40625 -7.570312 6.3125 -7.375 C 7.257812 -7.144531 8.035156 -6.914062 8.640625 -6.6875 C 9.253906 -6.46875 9.773438 -6.113281 10.203125 -5.625 C 10.640625 -5.132812 10.859375 -4.472656 10.859375 -3.640625 C 10.859375 -2.929688 10.65625 -2.28125 10.25 -1.6875 C 9.851562 -1.101562 9.257812 -0.640625 8.46875 -0.296875 C 7.675781 0.046875 6.710938 0.21875 5.578125 0.21875 Z M 5.578125 0.21875 "/></g></g></g><g fill="#fffbfb" fill-opacity="1"><g transform="translate(120.554495, 278.374758)"><g><path d="M 4.0625 -10.109375 L 0.078125 -10.109375 L 0.078125 -12.453125 L 10.921875 -12.453125 L 10.921875 -10.109375 L 6.9375 -10.109375 L 6.9375 0 L 4.0625 0 Z M 4.0625 -10.109375 "/></g></g></g><g fill="#fffbfb" fill-opacity="1"><g transform="translate(141.247769, 278.374758)"><g><path d="M 9.6875 -2.671875 L 3.890625 -2.671875 L 2.796875 0 L -0.15625 0 L 5.390625 -12.453125 L 8.234375 -12.453125 L 13.8125 0 L 10.78125 0 Z M 8.78125 -4.859375 L 6.796875 -9.625 L 4.828125 -4.859375 Z M 8.78125 -4.859375 "/></g></g></g><g fill="#fffbfb" fill-opacity="1"><g transform="translate(164.573836, 278.374758)"><g><path d="M 4.359375 -10.140625 L 4.359375 -6.859375 L 10.125 -6.859375 L 10.125 -4.53125 L 4.359375 -4.53125 L 4.359375 0 L 1.484375 0 L 1.484375 -12.453125 L 10.890625 -12.453125 L 10.890625 -10.140625 Z M 4.359375 -10.140625 "/></g></g></g><g fill="#fffbfb" fill-opacity="1"><g transform="translate(185.640691, 278.374758)"><g><path d="M 9.6875 -2.671875 L 3.890625 -2.671875 L 2.796875 0 L -0.15625 0 L 5.390625 -12.453125 L 8.234375 -12.453125 L 13.8125 0 L 10.78125 0 Z M 8.78125 -4.859375 L 6.796875 -9.625 L 4.828125 -4.859375 Z M 8.78125 -4.859375 "/></g></g></g><g fill="#fffbfb" fill-opacity="1"><g transform="translate(208.966758, 278.374758)"><g/></g></g><g fill="#fffbfb" fill-opacity="1"><g transform="translate(223.700682, 278.374758)"><g><path d="M 4.0625 -10.109375 L 0.078125 -10.109375 L 0.078125 -12.453125 L 10.921875 -12.453125 L 10.921875 -10.109375 L 6.9375 -10.109375 L 6.9375 0 L 4.0625 0 Z M 4.0625 -10.109375 "/></g></g></g><g fill="#fffbfb" fill-opacity="1"><g transform="translate(244.393945, 278.374758)"><g><path d="M 7.515625 0.21875 C 6.222656 0.21875 5.054688 -0.0546875 4.015625 -0.609375 C 2.972656 -1.171875 2.15625 -1.941406 1.5625 -2.921875 C 0.976562 -3.898438 0.6875 -5.003906 0.6875 -6.234375 C 0.6875 -7.453125 0.976562 -8.550781 1.5625 -9.53125 C 2.15625 -10.507812 2.972656 -11.273438 4.015625 -11.828125 C 5.054688 -12.390625 6.222656 -12.671875 7.515625 -12.671875 C 8.804688 -12.671875 9.96875 -12.390625 11 -11.828125 C 12.03125 -11.273438 12.84375 -10.507812 13.4375 -9.53125 C 14.03125 -8.550781 14.328125 -7.453125 14.328125 -6.234375 C 14.328125 -5.003906 14.03125 -3.898438 13.4375 -2.921875 C 12.84375 -1.941406 12.03125 -1.171875 11 -0.609375 C 9.96875 -0.0546875 8.804688 0.21875 7.515625 0.21875 Z M 7.515625 -2.25 C 8.242188 -2.25 8.90625 -2.414062 9.5 -2.75 C 10.09375 -3.082031 10.554688 -3.550781 10.890625 -4.15625 C 11.234375 -4.769531 11.40625 -5.460938 11.40625 -6.234375 C 11.40625 -7.003906 11.234375 -7.691406 10.890625 -8.296875 C 10.554688 -8.898438 10.09375 -9.367188 9.5 -9.703125 C 8.90625 -10.046875 8.242188 -10.21875 7.515625 -10.21875 C 6.773438 -10.21875 6.109375 -10.046875 5.515625 -9.703125 C 4.921875 -9.367188 4.453125 -8.898438 4.109375 -8.296875 C 3.773438 -7.691406 3.609375 -7.003906 3.609375 -6.234375 C 3.609375 -5.460938 3.773438 -4.769531 4.109375 -4.15625 C 4.453125 -3.550781 4.921875 -3.082031 5.515625 -2.75 C 6.109375 -2.414062 6.773438 -2.25 7.515625 -2.25 Z M 7.515625 -2.25 "/></g></g></g><g fill="#fffbfb" fill-opacity="1"><g transform="translate(269.107551, 278.374758)"><g><path d="M 6.875 -12.453125 C 7.976562 -12.453125 8.9375 -12.269531 9.75 -11.90625 C 10.5625 -11.539062 11.1875 -11.019531 11.625 -10.34375 C 12.0625 -9.664062 12.28125 -8.863281 12.28125 -7.9375 C 12.28125 -7.019531 12.0625 -6.21875 11.625 -5.53125 C 11.1875 -4.851562 10.5625 -4.332031 9.75 -3.96875 C 8.9375 -3.613281 7.976562 -3.4375 6.875 -3.4375 L 4.359375 -3.4375 L 4.359375 0 L 1.484375 0 L 1.484375 -12.453125 Z M 6.703125 -5.78125 C 7.578125 -5.78125 8.238281 -5.96875 8.6875 -6.34375 C 9.132812 -6.71875 9.359375 -7.25 9.359375 -7.9375 C 9.359375 -8.632812 9.132812 -9.171875 8.6875 -9.546875 C 8.238281 -9.921875 7.578125 -10.109375 6.703125 -10.109375 L 4.359375 -10.109375 L 4.359375 -5.78125 Z M 6.703125 -5.78125 "/></g></g></g><g fill="#fffbfb" fill-opacity="1"><g transform="translate(291.828787, 278.374758)"><g><path d="M 9.6875 -2.671875 L 3.890625 -2.671875 L 2.796875 0 L -0.15625 0 L 5.390625 -12.453125 L 8.234375 -12.453125 L 13.8125 0 L 10.78125 0 Z M 8.78125 -4.859375 L 6.796875 -9.625 L 4.828125 -4.859375 Z M 8.78125 -4.859375 "/></g></g></g><g fill="#fffbfb" fill-opacity="1"><g transform="translate(315.154843, 278.374758)"><g><path d="M 1.484375 -12.453125 L 4.359375 -12.453125 L 4.359375 -2.34375 L 10.609375 -2.34375 L 10.609375 0 L 1.484375 0 Z M 1.484375 -12.453125 "/></g></g></g><g fill="#fffbfb" fill-opacity="1"><g transform="translate(121.697012, 297.648686)"><g><path d="M 5.796875 0.0625 C 4.847656 0.0625 3.988281 -0.144531 3.21875 -0.5625 C 2.457031 -0.988281 1.859375 -1.578125 1.421875 -2.328125 C 0.984375 -3.078125 0.765625 -3.921875 0.765625 -4.859375 C 0.765625 -5.785156 0.984375 -6.625 1.421875 -7.375 C 1.859375 -8.125 2.457031 -8.710938 3.21875 -9.140625 C 3.988281 -9.566406 4.847656 -9.78125 5.796875 -9.78125 C 6.503906 -9.78125 7.148438 -9.664062 7.734375 -9.4375 C 8.328125 -9.21875 8.832031 -8.882812 9.25 -8.4375 L 8.8125 -7.984375 C 8.03125 -8.742188 7.035156 -9.125 5.828125 -9.125 C 5.015625 -9.125 4.273438 -8.9375 3.609375 -8.5625 C 2.941406 -8.195312 2.414062 -7.6875 2.03125 -7.03125 C 1.65625 -6.382812 1.46875 -5.660156 1.46875 -4.859375 C 1.46875 -4.054688 1.65625 -3.328125 2.03125 -2.671875 C 2.414062 -2.015625 2.941406 -1.5 3.609375 -1.125 C 4.273438 -0.757812 5.015625 -0.578125 5.828125 -0.578125 C 7.023438 -0.578125 8.019531 -0.96875 8.8125 -1.75 L 9.25 -1.296875 C 8.832031 -0.847656 8.328125 -0.507812 7.734375 -0.28125 C 7.140625 -0.0507812 6.492188 0.0625 5.796875 0.0625 Z M 5.796875 0.0625 "/></g></g></g><g fill="#fffbfb" fill-opacity="1"><g transform="translate(139.189288, 297.648686)"><g><path d="M 5.8125 0.0625 C 4.863281 0.0625 4.003906 -0.148438 3.234375 -0.578125 C 2.460938 -1.003906 1.859375 -1.59375 1.421875 -2.34375 C 0.984375 -3.09375 0.765625 -3.929688 0.765625 -4.859375 C 0.765625 -5.785156 0.984375 -6.617188 1.421875 -7.359375 C 1.859375 -8.109375 2.460938 -8.695312 3.234375 -9.125 C 4.003906 -9.5625 4.863281 -9.78125 5.8125 -9.78125 C 6.769531 -9.78125 7.628906 -9.566406 8.390625 -9.140625 C 9.160156 -8.710938 9.765625 -8.125 10.203125 -7.375 C 10.640625 -6.625 10.859375 -5.785156 10.859375 -4.859375 C 10.859375 -3.921875 10.640625 -3.078125 10.203125 -2.328125 C 9.765625 -1.578125 9.160156 -0.988281 8.390625 -0.5625 C 7.628906 -0.144531 6.769531 0.0625 5.8125 0.0625 Z M 5.8125 -0.578125 C 6.625 -0.578125 7.359375 -0.757812 8.015625 -1.125 C 8.671875 -1.5 9.1875 -2.015625 9.5625 -2.671875 C 9.945312 -3.328125 10.140625 -4.054688 10.140625 -4.859375 C 10.140625 -5.660156 9.945312 -6.382812 9.5625 -7.03125 C 9.1875 -7.6875 8.671875 -8.195312 8.015625 -8.5625 C 7.359375 -8.9375 6.625 -9.125 5.8125 -9.125 C 5 -9.125 4.257812 -8.9375 3.59375 -8.5625 C 2.9375 -8.195312 2.414062 -7.6875 2.03125 -7.03125 C 1.65625 -6.382812 1.46875 -5.660156 1.46875 -4.859375 C 1.46875 -4.054688 1.65625 -3.328125 2.03125 -2.671875 C 2.414062 -2.015625 2.9375 -1.5 3.59375 -1.125 C 4.257812 -0.757812 5 -0.578125 5.8125 -0.578125 Z M 5.8125 -0.578125 "/></g></g></g><g fill="#fffbfb" fill-opacity="1"><g transform="translate(158.373574, 297.648686)"><g><path d="M 7.703125 -2.734375 L 2.0625 -2.734375 L 0.828125 0 L 0.0625 0 L 4.53125 -9.71875 L 5.25 -9.71875 L 9.71875 0 L 8.953125 0 Z M 7.4375 -3.328125 L 4.890625 -8.9375 L 2.34375 -3.328125 Z M 7.4375 -3.328125 "/></g></g></g><g fill="#fffbfb" fill-opacity="1"><g transform="translate(175.713294, 297.648686)"><g><path d="M 5.796875 0.0625 C 4.847656 0.0625 3.988281 -0.144531 3.21875 -0.5625 C 2.457031 -0.988281 1.859375 -1.578125 1.421875 -2.328125 C 0.984375 -3.078125 0.765625 -3.921875 0.765625 -4.859375 C 0.765625 -5.785156 0.984375 -6.625 1.421875 -7.375 C 1.859375 -8.125 2.457031 -8.710938 3.21875 -9.140625 C 3.988281 -9.566406 4.847656 -9.78125 5.796875 -9.78125 C 6.503906 -9.78125 7.148438 -9.664062 7.734375 -9.4375 C 8.328125 -9.21875 8.832031 -8.882812 9.25 -8.4375 L 8.8125 -7.984375 C 8.03125 -8.742188 7.035156 -9.125 5.828125 -9.125 C 5.015625 -9.125 4.273438 -8.9375 3.609375 -8.5625 C 2.941406 -8.195312 2.414062 -7.6875 2.03125 -7.03125 C 1.65625 -6.382812 1.46875 -5.660156 1.46875 -4.859375 C 1.46875 -4.054688 1.65625 -3.328125 2.03125 -2.671875 C 2.414062 -2.015625 2.941406 -1.5 3.609375 -1.125 C 4.273438 -0.757812 5.015625 -0.578125 5.828125 -0.578125 C 7.023438 -0.578125 8.019531 -0.96875 8.8125 -1.75 L 9.25 -1.296875 C 8.832031 -0.847656 8.328125 -0.507812 7.734375 -0.28125 C 7.140625 -0.0507812 6.492188 0.0625 5.796875 0.0625 Z M 5.796875 0.0625 "/></g></g></g><g fill="#fffbfb" fill-opacity="1"><g transform="translate(193.205568, 297.648686)"><g><path d="M 9.59375 -9.71875 L 9.59375 0 L 8.890625 0 L 8.890625 -4.625 L 2.40625 -4.625 L 2.40625 0 L 1.6875 0 L 1.6875 -9.71875 L 2.40625 -9.71875 L 2.40625 -5.25 L 8.890625 -5.25 L 8.890625 -9.71875 Z M 9.59375 -9.71875 "/></g></g></g><g fill="#fffbfb" fill-opacity="1"><g transform="translate(212.057001, 297.648686)"><g><path d="M 1.6875 -9.71875 L 2.40625 -9.71875 L 2.40625 0 L 1.6875 0 Z M 2.0625 -10.890625 C 1.90625 -10.890625 1.773438 -10.941406 1.671875 -11.046875 C 1.566406 -11.160156 1.515625 -11.289062 1.515625 -11.4375 C 1.515625 -11.582031 1.566406 -11.707031 1.671875 -11.8125 C 1.773438 -11.914062 1.90625 -11.96875 2.0625 -11.96875 C 2.207031 -11.96875 2.332031 -11.914062 2.4375 -11.8125 C 2.539062 -11.707031 2.59375 -11.582031 2.59375 -11.4375 C 2.59375 -11.289062 2.539062 -11.160156 2.4375 -11.046875 C 2.332031 -10.941406 2.207031 -10.890625 2.0625 -10.890625 Z M 2.0625 -10.890625 "/></g></g></g><g fill="#fffbfb" fill-opacity="1"><g transform="translate(223.710457, 297.648686)"><g><path d="M 9.59375 -9.71875 L 9.59375 0 L 9.015625 0 L 2.40625 -8.4375 L 2.40625 0 L 1.6875 0 L 1.6875 -9.71875 L 2.296875 -9.71875 L 8.890625 -1.28125 L 8.890625 -9.71875 Z M 9.59375 -9.71875 "/></g></g></g><g fill="#fffbfb" fill-opacity="1"><g transform="translate(242.56189, 297.648686)"><g><path d="M 8.625 -4.8125 L 9.3125 -4.8125 L 9.3125 -1.171875 C 8.882812 -0.765625 8.367188 -0.457031 7.765625 -0.25 C 7.160156 -0.0390625 6.519531 0.0625 5.84375 0.0625 C 4.875 0.0625 4.003906 -0.144531 3.234375 -0.5625 C 2.460938 -0.988281 1.859375 -1.578125 1.421875 -2.328125 C 0.984375 -3.078125 0.765625 -3.921875 0.765625 -4.859375 C 0.765625 -5.785156 0.984375 -6.625 1.421875 -7.375 C 1.859375 -8.125 2.460938 -8.710938 3.234375 -9.140625 C 4.003906 -9.566406 4.878906 -9.78125 5.859375 -9.78125 C 6.566406 -9.78125 7.21875 -9.664062 7.8125 -9.4375 C 8.414062 -9.21875 8.929688 -8.890625 9.359375 -8.453125 L 8.90625 -7.984375 C 8.5 -8.390625 8.039062 -8.679688 7.53125 -8.859375 C 7.03125 -9.035156 6.476562 -9.125 5.875 -9.125 C 5.039062 -9.125 4.285156 -8.9375 3.609375 -8.5625 C 2.941406 -8.195312 2.414062 -7.6875 2.03125 -7.03125 C 1.65625 -6.382812 1.46875 -5.660156 1.46875 -4.859375 C 1.46875 -4.054688 1.660156 -3.328125 2.046875 -2.671875 C 2.429688 -2.023438 2.957031 -1.515625 3.625 -1.140625 C 4.289062 -0.765625 5.039062 -0.578125 5.875 -0.578125 C 6.976562 -0.578125 7.894531 -0.875 8.625 -1.46875 Z M 8.625 -4.8125 "/></g></g></g></svg>